{
  "accessors": [
    {
      "bufferView": 2,
      "componentType": 5126,
      "count": 2041,
      "max": [
        67.02175903320313,
        25.113224029541016,
        322.5740966796875
      ],
      "min": [
        -101.24224090576172,
        -25.372447967529297,
        -42.625
      ],
      "type": "VEC3"
    },
    {
      "bufferView": 2,
      "byteOffset": 24492,
      "componentType": 5126,
      "count": 2041,
      "max": [
        1.0,
        1.0,
        1.0
      ],
      "min": [
        -1.0,
        -1.0,
        -1.0
      ],
      "type": "VEC3"
    },
    {
      "bufferView": 3,
      "componentType": 5126,
      "count": 2041,
      "max": [
        0.999967634677887,
        1.0,
        0.9998723864555359,
        1.0
      ],
      "min": [
        -0.9999760389328003,
        -1.0,
        -0.9997446537017822,
        1.0
      ],
      "type": "VEC4"
    },
    {
      "bufferView": 1,
      "componentType": 5126,
      "count": 2041,
      "max": [
        0.9929015636444092,
        0.999500036239624
      ],
      "min": [
        0.0005000000237487257,
        0.0005000000237487257
      ],
      "type": "VEC2"
    },
    {
      "bufferView": 0,
      "componentType": 5125,
      "count": 7722,
      "type": "SCALAR"
    },
    {
      "bufferView": 2,
      "byteOffset": 48984,
      "componentType": 5126,
      "count": 24,
      "max": [
        -59.59701156616211,
        20.59540557861328,
        242.040283203125
      ],
      "min": [
        -97.04421997070313,
        -20.854631423950195,
        206.91793823242188
      ],
      "type": "VEC3"
    },
    {
      "bufferView": 2,
      "byteOffset": 49272,
      "componentType": 5126,
      "count": 24,
      "max": [
        0.9812028408050537,
        0.9773380160331726,
        -0.19297948479652405
      ],
      "min": [
        -0.9812028408050537,
        -0.9773380160331726,
        -0.21168501675128937
      ],
      "type": "VEC3"
    },
    {
      "bufferView": 1,
      "byteOffset": 16328,
      "componentType": 5126,
      "count": 24,
      "max": [
        0.7854369282722473,
        0.8991215825080872
      ],
      "min": [
        0.4701698422431946,
        0.26196569204330444
      ],
      "type": "VEC2"
    },
    {
      "bufferView": 0,
      "byteOffset": 30888,
      "componentType": 5125,
      "count": 24,
      "type": "SCALAR"
    }
  ],
  "asset": {
    "extras": {
      "author": "Trixma01 (https://sketchfab.com/Trixma01)",
      "license": "CC-BY-4.0 (http://creativecommons.org/licenses/by/4.0/)",
      "source": "https://sketchfab.com/3d-models/lampadaire-stylise-db52ad930f0e43f480c7f8d4bcf7f355",
      "title": "Lampadaire_Stylisé"
    },
    "generator": "Sketchfab-12.57.0",
    "version": "2.0"
  },
  "bufferViews": [
    {
      "buffer": 0,
      "byteLength": 30984,
      "name": "floatBufferViews",
      "target": 34963
    },
    {
      "buffer": 0,
      "byteLength": 16520,
      "byteOffset": 30984,
      "byteStride": 8,
      "name": "floatBufferViews",
      "target": 34962
    },
    {
      "buffer": 0,
      "byteLength": 49560,
      "byteOffset": 47504,
      "byteStride": 12,
      "name": "floatBufferViews",
      "target": 34962
    },
    {
      "buffer": 0,
      "byteLength": 32656,
      "byteOffset": 97064,
      "byteStride": 16,
      "name": "floatBufferViews",
      "target": 34962
    }
  ],
  "buffers": [
    {
      "byteLength": 129720,
      "uri": "scene.bin"
    }
  ],
  "images": [
    {
      "uri": "textures/Lampe_baseColor.jpeg"
    },
    {
      "uri": "textures/Lampe_metallicRoughness.png"
    },
    {
      "uri": "textures/Lampe_normal.png"
    },
    {
      "uri": "textures/light_baseColor.jpeg"
    }
  ],
  "materials": [
    {
      "doubleSided": true,
      "name": "Lampe",
      "normalTexture": {
        "index": 2
      },
      "occlusionTexture": {
        "index": 1
      },
      "pbrMetallicRoughness": {
        "baseColorTexture": {
          "index": 0
        },
        "metallicRoughnessTexture": {
          "index": 1
        }
      }
    },
    {
      "doubleSided": true,
      "emissiveFactor": [
        0.9729213035105987,
        0.5481237230952761,
        0.0346153189350905
      ],
      "name": "light",
      "pbrMetallicRoughness": {
        "baseColorFactor": [
          0.7554679491141119,
          0.7554679491141119,
          0.7554679491141119,
          1.0
        ],
        "baseColorTexture": {
          "index": 3
        },
        "metallicFactor": 0.0,
        "roughnessFactor": 0.34502383254236946
      }
    }
  ],
  "meshes": [
    {
      "name": "METAL_02_LP_Lampe_0",
      "primitives": [
        {
          "attributes": {
            "NORMAL": 1,
            "POSITION": 0,
            "TANGENT": 2,
            "TEXCOORD_0": 3
          },
          "indices": 4,
          "material": 0,
          "mode": 4
        }
      ]
    },
    {
      "name": "METAL_02_LP_light_0",
      "primitives": [
        {
          "attributes": {
            "NORMAL": 6,
            "POSITION": 5,
            "TEXCOORD_0": 7
          },
          "indices": 8,
          "material": 1,
          "mode": 4
        }
      ]
    }
  ],
  "nodes": [
    {
      "children": [
        1
      ],
      "matrix": [
        1.0,
        0.0,
        0.0,
        0.0,
        0.0,
        2.220446049250313e-16,
        -1.0,
        0.0,
        0.0,
        1.0,
        2.220446049250313e-16,
        0.0,
        0.0,
        0.0,
        0.0,
        1.0
      ],
      "name": "Sketchfab_model"
    },
    {
      "children": [
        2
      ],
      "matrix": [
        0.009999999776482582,
        0.0,
        0.0,
        0.0,
        0.0,
        0.0,
        0.009999999776482582,
        0.0,
        0.0,
        -0.009999999776482582,
        0.0,
        0.0,
        0.0,
        0.0,
        0.0,
        1.0
      ],
      "name": "e8feded78b5f44e88d2bc3d875edf73e.fbx"
    },
    {
      "children": [
        3
      ],
      "name": "RootNode"
    },
    {
      "children": [
        4
      ],
      "matrix": [
        1.0,
        0.0,
        0.0,
        0.0,
        0.0,
        2.220446049250313e-16,
        -1.0,
        0.0,
        0.0,
        1.0,
        2.220446049250313e-16,
        0.0,
        0.0,
        0.0,
        0.0,
        1.0
      ],
      "name": "METAL_02_LP"
    },
    {
      "children": [
        5,
        6
      ],
      "matrix": [
        1.0,
        0.0,
        -0.0,
        0.0,
        0.0,
        1.0,
        0.0,
        0.0,
        0.0,
        0.0,
        1.0,
        0.0,
        17.123607635498047,
        0.129608154296875,
        42.625,
        1.0
      ],
      "name": "Object_4"
    },
    {
      "mesh": 0,
      "name": "METAL_02_LP_Lampe_0"
    },
    {
      "mesh": 1,
      "name": "METAL_02_LP_light_0"
    }
  ],
  "samplers": [
    {
      "magFilter": 9729,
      "minFilter": 9987,
      "wrapS": 10497,
      "wrapT": 10497
    }
  ],
  "scene": 0,
  "scenes": [
    {
      "name": "Sketchfab_Scene",
      "nodes": [
        0
      ]
    }
  ],
  "textures": [
    {
      "sampler": 0,
      "source": 0
    },
    {
      "sampler": 0,
      "source": 1
    },
    {
      "sampler": 0,
      "source": 2
    },
    {
      "sampler": 0,
      "source": 3
    }
  ]
}
